<svg viewBox="0 0 200 200" fill="none" xmlns="http://www.w3.org/2000/svg">
  <!-- Crescent Moon Circle - Right side -->
  <path
    d="M 80 160 A 70 70 0 1 0 80 20" 
    stroke="#6B8E8E"
    stroke-width="1.5"
    stroke-linecap="round"
    fill="none"
    transform="rotate(-15 100 90)"
  />

  <!-- Sun - Half sun rising above lotus -->
  <g transform="translate(100, 75) scale(0.6)">
    <path d="M-15 0 A 15 15 0 0 1 15 0" stroke="#6B8E8E" stroke-width="2" fill="none" />
    <g stroke="#6B8E8E" stroke-width="2" stroke-linecap="round">
      <line x1="0" y1="-5" x2="0" y2="-15" />
      <line x1="10" y1="-2" x2="18" y2="-10" />
      <line x1="-10" y1="-2" x2="-18" y2="-10" />
      <line x1="18" y1="5" x2="28" y2="2" />
      <line x1="-18" y1="5" x2="-28" y2="2" />
    </g>
  </g>

  <!-- Lotus Flower -->
  <g transform="translate(100, 115) scale(0.85)" stroke="#6B8E8E" stroke-width="1.5" stroke-linecap="round" stroke-linejoin="round" fill="none">
    <!-- Center Petal -->
    <path d="M0 15 C0 15 -10 -25 0 -50 C10 -25 0 15 0 15" />
    
    <!-- Inner Side Petals -->
    <path d="M0 15 C0 15 -20 0 -25 -25 C-15 -15 0 0 0 15" />
    <path d="M0 15 C0 15 20 0 25 -25 C15 -15 0 0 0 15" />
    
    <!-- Middle Side Petals -->
    <path d="M0 15 C0 15 -35 5 -40 -15 C-25 -5 0 5 0 15" />
    <path d="M0 15 C0 15 35 5 40 -15 C25 -5 0 5 0 15" />
    
    <!-- Outer Leaves -->
    <path d="M0 15 C0 15 -55 10 -60 -5 C-40 0 0 15 0 15" />
    <path d="M0 15 C0 15 55 10 60 -5 C40 0 0 15 0 15" />
  </g>

  <!-- Vertical Dots -->
  <g fill="#6B8E8E">
    <circle cx="100" cy="155" r="2.5" />
    <circle cx="100" cy="165" r="2" />
    <circle cx="100" cy="173" r="1.5" />
  </g>
</svg>
